<svg id="Layer_1" data-name="Layer 1" xmlns="http://www.w3.org/2000/svg" viewBox="0 0 246.31 246.31"><defs><style>.cls-1{fill:#4d4d4d;}</style></defs><path class="cls-1" d="M366.15,186.25c-7-12.85-19.29-20.46-41.55-34.27l-22.92-14.22c-24.33-15.1-36.54-22.68-51.68-22.68s-27.35,7.58-51.68,22.68L175.4,152c-22.26,13.81-34.52,21.42-41.55,34.27s-7,26.67-7,54.32V258c0,23,0,39.66,1.75,53.12,2,15.34,6.33,25.76,14.08,33.77s18,12.61,32.94,14.69c13.07,1.82,29.18,1.82,51.47,1.82h45.82c22.29,0,38.4,0,51.47-1.82,15-2.08,25.13-6.61,32.94-14.69s12.09-18.43,14.08-33.77c1.75-13.46,1.75-30.09,1.75-53.12V240.57C373.15,212.92,373.15,199.05,366.15,186.25ZM356,258c0,42.32,0,63.56-11,74.95s-31.33,11.26-72,11.26H227.09c-40.72,0-61.16,0-72.05-11.26S144,300.31,144,258V240.57c0-24.72,0-37.13,4.89-46.07s15.12-15.24,35.55-27.92l22.91-14.22c21.56-13.38,32.38-20.1,42.62-20.1s21.06,6.72,42.62,20.1l22.91,14.22c20.43,12.68,30.68,19,35.55,27.92S356,215.85,356,240.57Z" transform="translate(-126.85 -115.08)"/><path class="cls-1" d="M284.37,298.38H215.63a8.59,8.59,0,0,0,0,17.18h68.74a8.59,8.59,0,0,0,0-17.18Z" transform="translate(-126.85 -115.08)"/></svg>