<svg id="Layer_1" data-name="Layer 1" xmlns="http://www.w3.org/2000/svg" viewBox="0 0 466.55 432"><defs><style>.cls-1{fill:#c1272d;}</style></defs><path class="cls-1" d="M476.89,222.57c-9.86-19.94-31.76-29.8-75.4-49.43L149.61,59.79c-44.49-20-66.83-30.07-88.45-24.06A62.33,62.33,0,0,0,20.05,72.84c-8.2,20.89-.48,44.14,14.89,90.45L60.4,240a97,97,0,0,1,2.88,9.39,12.61,12.61,0,0,1,0,3.19,90,90,0,0,1-2.9,9.38L35.44,336.43c-15.53,46.41-23.33,69.7-15.17,90.63a62.36,62.36,0,0,0,41.12,37.2A47.12,47.12,0,0,0,74.26,466c18.32,0,39.84-9.69,75.79-25.86L401.52,327c43.62-19.63,65.52-29.49,75.37-49.42A62.41,62.41,0,0,0,476.89,222.57Zm-44.33,32.68c-.56.64-3.14,3.19-12.31,8.1s-22.43,10.88-39.12,18.39L129.68,394.89c-17.07,7.68-30.56,13.75-40.66,17.5s-13.77,3.95-14.66,4a12.49,12.49,0,0,1-7.71-7c-.1-.89-.21-4.63,2.49-15s7.41-24.45,13.36-42.2c0,0,25.58-76.41,25.88-77.32H239.06a24.81,24.81,0,1,0,0-49.62H107.79c-.1-.29-.2-.58-.29-.88L82,147.66C76.15,129.94,71.51,116,68.83,105.55s-2.54-14.06-2.45-14.94a12.52,12.52,0,0,1,7.72-7c.9,0,4.61.25,14.61,4s23.52,9.78,40.55,17.44L381.13,218.39c16.67,7.5,29.84,13.42,39.11,18.38s11.77,7.47,12.32,8.11A12.51,12.51,0,0,1,432.56,255.25Z" transform="translate(-16.72 -34)"/></svg>