<svg id="Layer_1" data-name="Layer 1" xmlns="http://www.w3.org/2000/svg" viewBox="0 0 225.5 246.03"><defs><style>.cls-1{fill:#4d4d4d;}</style></defs><path class="cls-1" d="M358.7,188.94c-3.89-6.73-10.25-11-22.9-19.56-.16-.11-.33-.22-.51-.32l-63.56-36.75c-12.11-7.09-31.18-7.1-43.42,0l-63.6,36.78c-.18.1-.35.21-.51.32-12.65,8.54-19,12.83-22.9,19.56-4.05,7-4.05,14.34-4.05,27.64V283.3c0,13.36,0,20.71,4.05,27.74,3.89,6.75,10.24,11,22.9,19.58.16.11.33.22.51.32l63.6,36.78c6.11,3.53,13.93,5.3,21.73,5.3s15.63-1.78,21.69-5.33l63.56-36.75c.18-.1.35-.21.51-.32,12.65-8.54,19-12.83,22.9-19.56,4.05-7,4.05-14.34,4.05-27.64V216.58C362.75,203.28,362.75,196,358.7,188.94Zm-13.29,94.48c0,11.08-.07,16.1-1.73,19-1.88,3.25-7.37,7-17.33,13.69L263,352.7l-.05,0c-6.74,3.95-19.12,3.94-26,0l-63.34-36.62c-10-6.72-15.45-10.45-17.32-13.7-1.67-2.89-1.74-7.93-1.74-19.08V216.58c0-11.08.07-16.1,1.73-19,1.88-3.25,7.37-7,17.33-13.7L237,147.3c6.84-4,19.22-4,26,0l.05,0,63.34,36.63c10,6.72,15.45,10.44,17.33,13.69,1.66,2.86,1.73,7.88,1.73,19Z" transform="translate(-137.25 -126.98)"/><path class="cls-1" d="M250,206.63A43.37,43.37,0,1,0,293.37,250,43.42,43.42,0,0,0,250,206.63ZM250,276a26,26,0,1,1,26-26A26,26,0,0,1,250,276Z" transform="translate(-137.25 -126.98)"/></svg>