<svg id="Layer_1" data-name="Layer 1" xmlns="http://www.w3.org/2000/svg" viewBox="0 0 480 480"><defs><style>.cls-1{fill:#ffcb39;}</style></defs><path class="cls-1" d="M173.81,105.91l7.87-14.11C212.07,37.27,227.28,10,250,10s37.92,27.27,68.32,81.8l7.87,14.11c8.64,15.5,13,23.24,19.69,28.36s15.12,7,31.9,10.8l15.27,3.46c59,13.36,88.55,20,95.57,42.62s-13.1,46.11-53.34,93.17l-10.42,12.17c-11.43,13.38-17.15,20.06-19.72,28.34s-1.71,17.19,0,35l1.57,16.25c6.09,62.78,9.13,94.18-9.26,108.13s-46,1.24-101.28-24.21l-14.3-6.59c-15.71-7.23-23.57-10.85-31.89-10.85s-16.18,3.62-31.89,10.85L203.81,460c-55.27,25.45-82.9,38.17-101.29,24.21s-15.34-45.35-9.25-108.13l1.57-16.25c1.73-17.84,2.59-26.76,0-35s-8.29-15-19.73-28.34L64.72,284.32c-40.24-47.06-60.36-70.59-53.34-93.17S47.92,161.88,107,148.53l15.27-3.46c16.78-3.79,25.16-5.69,31.9-10.8S165.17,121.41,173.81,105.91Z" transform="translate(-10 -10)"/></svg>