<svg id="Layer_1" data-name="Layer 1" xmlns="http://www.w3.org/2000/svg" viewBox="0 0 200 47.46"><defs><style>.cls-1{fill:#d32f2f;}</style></defs><polygon class="cls-1" points="165.56 34.13 165.56 24.9 165.56 15.67 159.05 22.18 152.54 28.69 152.54 38.08 152.54 47.46 161.77 47.46 171 47.46 177.66 40.8 184.33 34.13 174.95 34.13 165.56 34.13"/><path class="cls-1" d="M176.66,26.27H153.32l6.35,6.36L166,39h21.26V60.23l6.28,6.29c3.45,3.45,6.32,6.28,6.36,6.28s.08-10.47.08-23.27V26.27Z" transform="translate(0 -26.27)"/><path class="cls-1" d="M28.31,29.37H16.43L8.34,49.46C3.89,60.5.16,69.79,0,70.09c-.19.52.13.55,5.18.47l5.37-.09,1.54-4.11,1.53-4.12,9.32.09,9.33.08L34,66.52l1.71,4.1h5.35a32.35,32.35,0,0,0,5.35-.23c0-.13-4.08-9.42-9.07-20.63ZM22.83,55.43c-5.11,0-6.52-.09-6.41-.39,2.33-6.36,6-15.74,6.11-15.74s3.12,7,6.44,15.12l.41,1Z" transform="translate(0 -26.27)"/><path class="cls-1" d="M87.17,29.37,80.58,37c-6.26,7.24-6.62,7.6-7.16,7.11-.31-.28-3.33-3.71-6.7-7.62l-6.15-7.11H51.71V70.63h9.93V57.76c0-7.09.11-12.88.24-12.88s2.68,2.85,5.66,6.34c4.52,5.28,5.56,6.34,6.26,6.36s1.65-.92,6.36-6.37l5.52-6.4.08,12.91.08,12.91H96.07V29.37h-8.9Z" transform="translate(0 -26.27)"/><path class="cls-1" d="M128.65,30c-2.59-.53-4.26-.6-13.73-.61H104.14V70.63h9.23c9.88,0,13.46-.27,17.14-1.27,9.83-2.65,15-10,14.51-20.59C144.58,39,138.46,32,128.65,30Zm5.91,22c-.92,6-3.93,9.42-9.35,10.7a32.33,32.33,0,0,1-6.41.47h-4.42V36.82h4.74c5.42,0,7.52.4,10.1,2a11.51,11.51,0,0,1,2.57,2.13A15.06,15.06,0,0,1,134.56,52Z" transform="translate(0 -26.27)"/></svg>