<svg id="Layer_1" data-name="Layer 1" xmlns="http://www.w3.org/2000/svg" viewBox="0 0 151.21 151.22"><defs><style>.cls-1{fill:#c3272b;fill-rule:evenodd;}</style></defs><path class="cls-1" d="M38.23,24.39H161a14.27,14.27,0,0,1,14.24,14.24V161.37A14.27,14.27,0,0,1,161,175.61H38.23A14.25,14.25,0,0,1,24,161.37V38.61A14.27,14.27,0,0,1,38.23,24.39Zm56.19,89.19a15.15,15.15,0,0,1-5.15-2.83,20.69,20.69,0,0,1-4.5-5.37c-.62,0-1.2.05-1.76.05-1,0-2,0-3.08-.11a37,37,0,0,1-10.55-2.61,43.46,43.46,0,0,0-6.33-1.94,7,7,0,0,0-2.15-.1,3.91,3.91,0,0,0-2.53,1.47,7.63,7.63,0,0,0-1.45,3.32,12.85,12.85,0,0,0-.09,4.42,20.47,20.47,0,0,0,1,3.88,30.54,30.54,0,0,0,1.69,3.81,27.78,27.78,0,0,0,1.91,3.15,32.05,32.05,0,0,0,2.29,2.9A23.46,23.46,0,0,0,72.15,130a13.19,13.19,0,0,0,7.53.89,14.65,14.65,0,0,0,7-3.56,28,28,0,0,0,7.07-10.51,8.45,8.45,0,0,0,.6-2.32,3.26,3.26,0,0,0,.11-1Zm20.62-8.2a15,15,0,0,1-3.26,4.9,21,21,0,0,1-5.74,4c0,.61-.05,1.19-.11,1.75-.07,1-.2,2-.37,3.06a36.9,36.9,0,0,1-3.49,10.28,44,44,0,0,0-2.48,6.14,6.45,6.45,0,0,0-.27,2.13,4,4,0,0,0,1.25,2.65,7.47,7.47,0,0,0,3.18,1.73,12.76,12.76,0,0,0,4.4.47,19.85,19.85,0,0,0,4-.7,31.59,31.59,0,0,0,3.94-1.38,27.21,27.21,0,0,0,3.29-1.63,35.76,35.76,0,0,0,3.09-2,23.53,23.53,0,0,0,7.1-7.82,13.17,13.17,0,0,0,1.53-7.43,14.89,14.89,0,0,0-2.95-7.24,28.06,28.06,0,0,0-9.87-7.93,8,8,0,0,0-2.27-.79,4.37,4.37,0,0,0-.93-.19ZM105,86.3a15.18,15.18,0,0,1,5,3,20.81,20.81,0,0,1,4.28,5.55l1.76,0c1.06,0,2.07.11,3.06.23a37,37,0,0,1,10.43,3,45.6,45.6,0,0,0,6.26,2.19l.07,0a6,6,0,0,0,2.06.16,4,4,0,0,0,2.6-1.35A7.93,7.93,0,0,0,142.18,96a13.07,13.07,0,0,0,.27-4.41,19.71,19.71,0,0,0-.86-3.94A30.62,30.62,0,0,0,140,83.73a29.59,29.59,0,0,0-1.78-3.23,36.4,36.4,0,0,0-2.17-3A23.37,23.37,0,0,0,128,70.78a13.23,13.23,0,0,0-7.49-1.19,14.64,14.64,0,0,0-7.1,3.26,27.87,27.87,0,0,0-7.5,10.2,9.67,9.67,0,0,0-.7,2.3,7,7,0,0,0-.14,1Zm2.74,6.51a10.48,10.48,0,1,0,3.06,7.41,10.45,10.45,0,0,0-3.06-7.41ZM86,94.94a15.06,15.06,0,0,1,3-5,20.78,20.78,0,0,1,5.53-4.28c0-.59,0-1.17,0-1.76,0-1,.11-2.07.22-3.07a37.29,37.29,0,0,1,3-10.43A44.51,44.51,0,0,0,100,64.09a6,6,0,0,0,.18-2.13,4,4,0,0,0-1.37-2.6,7.51,7.51,0,0,0-3.27-1.57,13.05,13.05,0,0,0-4.41-.26,19.74,19.74,0,0,0-3.94.87A32.2,32.2,0,0,0,83.29,60a28.3,28.3,0,0,0-3.23,1.8,30.91,30.91,0,0,0-3,2.16,23.16,23.16,0,0,0-6.73,8.16,13,13,0,0,0-1.17,7.48,14.49,14.49,0,0,0,3.27,7.09,28,28,0,0,0,10.23,7.48,8.52,8.52,0,0,0,2.28.69c.34.06.67.1,1,.13ZM99.61,43.33A56.68,56.68,0,1,1,42.93,100,56.68,56.68,0,0,1,99.61,43.33ZM157,36.15a7.19,7.19,0,1,1-7.18,7.19A7.19,7.19,0,0,1,157,36.15Zm-114.75,0A7.19,7.19,0,1,1,35,43.34a7.19,7.19,0,0,1,7.18-7.19ZM157,149.57a7.19,7.19,0,1,1-7.18,7.19,7.19,7.19,0,0,1,7.18-7.19ZM49.42,156.76a7.19,7.19,0,1,1-7.18-7.19,7.19,7.19,0,0,1,7.18,7.19Z" transform="translate(-24 -24.39)"/></svg>