<svg id="Layer_1" data-name="Layer 1" xmlns="http://www.w3.org/2000/svg" viewBox="0 0 126.58 191.33"><defs><style>.cls-1{fill:gray;}</style></defs><path class="cls-1" d="M133.84,45.4a5.13,5.13,0,0,1-5.13,5.13H71.28a5.13,5.13,0,0,1,0-10.25h57.43A5.13,5.13,0,0,1,133.84,45.4Z" transform="translate(-36.71 -4.67)"/><path class="cls-1" d="M135.2,4.67H64.8A28.09,28.09,0,0,0,36.71,32.76V167.91A28.09,28.09,0,0,0,64.8,196h70.4a28.09,28.09,0,0,0,28.09-28.09V32.76A28.09,28.09,0,0,0,135.2,4.67ZM100,168.75A18.76,18.76,0,1,1,118.75,150,18.78,18.78,0,0,1,100,168.75Zm38-71.52H62a4.18,4.18,0,1,1,0-8.36h76a4.18,4.18,0,0,1,0,8.36Zm0-15.79H62a4.18,4.18,0,0,1,0-8.36h76a4.18,4.18,0,0,1,0,8.36Zm-9.28-22.56H71.28a13.48,13.48,0,0,1,0-27h57.43a13.48,13.48,0,0,1,0,27ZM100,139.6A10.4,10.4,0,1,0,110.39,150,10.4,10.4,0,0,0,100,139.6Z" transform="translate(-36.71 -4.67)"/></svg>