<svg id="Layer_1" data-name="Layer 1" xmlns="http://www.w3.org/2000/svg" viewBox="-46.57 -26.88 245.76 245.76"><defs><style>.cls-1{fill:#d32f2f;fill-rule:evenodd;}</style></defs><path class="cls-1" d="M114.89,75.15c.58,0,1.18,0,1.78,0,1.06,0,2.08.11,3.09.22a37.54,37.54,0,0,1,10.52,3.08,44.71,44.71,0,0,0,6.32,2.21l.07,0a6.41,6.41,0,0,0,2.08.16,4,4,0,0,0,2.62-1.37,7.9,7.9,0,0,0,1.6-3.3,13.29,13.29,0,0,0,.27-4.45,19.87,19.87,0,0,0-.87-4,29.23,29.23,0,0,0-1.56-3.91,28.54,28.54,0,0,0-1.8-3.26,37.1,37.1,0,0,0-2.19-3,23.55,23.55,0,0,0-8.19-6.79,13.42,13.42,0,0,0-7.57-1.2,14.83,14.83,0,0,0-7.16,3.29,28.16,28.16,0,0,0-7.57,10.29,9.44,9.44,0,0,0-.7,2.33,4.72,4.72,0,0,0-.14,1,15.43,15.43,0,0,1,5.08,3.07A21,21,0,0,1,114.89,75.15Z" transform="translate(-23.7 -4)"/><path class="cls-1" d="M172.08,8.22A14.32,14.32,0,0,0,161.93,4H38.05A14.41,14.41,0,0,0,23.7,18.36V142.25A14.39,14.39,0,0,0,37,156.58l5,20.29a14.75,14.75,0,0,0,14.36,11.28h5.8v1.06A6.79,6.79,0,0,0,68.92,196h62.16a6.79,6.79,0,0,0,6.79-6.79v-1.06h5.88A14.78,14.78,0,0,0,158.07,177l5.25-20.48a14.41,14.41,0,0,0,13-14.3V18.37A14.32,14.32,0,0,0,172.08,8.22ZM100,23.11A57.21,57.21,0,1,1,42.8,80.32,57.2,57.2,0,0,1,100,23.11ZM42.09,15.87a7.26,7.26,0,1,1-7.25,7.26A7.26,7.26,0,0,1,42.09,15.87Zm0,114.47a7.26,7.26,0,1,1-7.25,7.25A7.26,7.26,0,0,1,42.1,130.34Zm101.65,46h-5.88v-1.06a6.79,6.79,0,0,0-6.79-6.79H68.92a6.79,6.79,0,0,0-6.79,6.79v1.06h-5.8a3,3,0,0,1-2.88-2.26l-4.26-17.45H151.11l-4.48,17.48A3,3,0,0,1,143.75,176.33Zm14.15-31.48a7.26,7.26,0,1,1,7.25-7.26A7.26,7.26,0,0,1,157.9,144.85Zm0-114.47a7.26,7.26,0,1,1,7.25-7.25A7.26,7.26,0,0,1,157.9,30.38Z" transform="translate(-23.7 -4)"/><path class="cls-1" d="M128.76,94.74a28.21,28.21,0,0,0-10-8,8.35,8.35,0,0,0-2.28-.79,4.57,4.57,0,0,0-1-.19,15,15,0,0,1-3.29,5,21,21,0,0,1-5.78,4.06c0,.62,0,1.2-.12,1.77-.07,1-.2,2-.37,3.08A37.26,37.26,0,0,1,102.48,110a44.19,44.19,0,0,0-2.49,6.19,6.36,6.36,0,0,0-.28,2.15A4,4,0,0,0,101,121a7.59,7.59,0,0,0,3.22,1.75,12.93,12.93,0,0,0,4.43.47,20.1,20.1,0,0,0,4-.7,32.57,32.57,0,0,0,4-1.39,26.5,26.5,0,0,0,3.33-1.66,35.55,35.55,0,0,0,3.12-2,23.71,23.71,0,0,0,7.16-7.89,13.16,13.16,0,0,0,1.54-7.5A14.7,14.7,0,0,0,128.76,94.74Z" transform="translate(-23.7 -4)"/><path class="cls-1" d="M90.2,80.53a10.55,10.55,0,0,0,10.57,10.55A10.56,10.56,0,1,0,90.2,80.53Z" transform="translate(-23.7 -4)"/><path class="cls-1" d="M56.83,90.28a20.85,20.85,0,0,0,1,3.92A31.09,31.09,0,0,0,59.59,98a26.06,26.06,0,0,0,1.92,3.18,32.68,32.68,0,0,0,2.31,2.93,23.79,23.79,0,0,0,8.47,6.47,13.26,13.26,0,0,0,7.6.89,14.68,14.68,0,0,0,7-3.59,28.28,28.28,0,0,0,7.14-10.6A9,9,0,0,0,94.66,95a3.25,3.25,0,0,0,.11-1,15.26,15.26,0,0,1-5.2-2.85A20.93,20.93,0,0,1,85,85.74c-.62,0-1.2.05-1.77.05-1,0-2,0-3.11-.11A37.51,37.51,0,0,1,69.5,83.05a44.42,44.42,0,0,0-6.4-2,6.46,6.46,0,0,0-2.16-.1,4,4,0,0,0-2.56,1.47,7.69,7.69,0,0,0-1.46,3.36A13.08,13.08,0,0,0,56.83,90.28Z" transform="translate(-23.7 -4)"/><path class="cls-1" d="M72.6,66.83a28.46,28.46,0,0,0,10.32,7.55,9.14,9.14,0,0,0,2.31.7c.34.06.67.09,1,.12a15.46,15.46,0,0,1,3-5.09,21,21,0,0,1,5.59-4.32c0-.6,0-1.18,0-1.78,0-1.06.11-2.09.22-3.09a37.14,37.14,0,0,1,3-10.53,45,45,0,0,0,2.21-6.33,6,6,0,0,0,.18-2.14,4.09,4.09,0,0,0-1.38-2.62,7.64,7.64,0,0,0-3.31-1.59,13,13,0,0,0-4.44-.26,19.32,19.32,0,0,0-4,.88,33.52,33.52,0,0,0-3.91,1.56,29.34,29.34,0,0,0-3.25,1.81,33.62,33.62,0,0,0-3,2.19,23.65,23.65,0,0,0-6.79,8.23,13.21,13.21,0,0,0-1.18,7.56A14.78,14.78,0,0,0,72.6,66.83Z" transform="translate(-23.7 -4)"/></svg>