<svg id="Layer_1" data-name="Layer 1" xmlns="http://www.w3.org/2000/svg" viewBox="-26.27 -24.31 222.26 222.26"><defs><style>.cls-1{fill:#4d4d4d;}</style></defs><path class="cls-1" d="M176.46,125.21a8.4,8.4,0,0,0-8.4,8.4v11.2c0,14.12-11.11,25.21-24.37,25.21H56.31c-13.26,0-24.37-11.09-24.37-25.21v-11.2a8.4,8.4,0,0,0-16.8,0v11.2c0,23,18.23,42,41.17,42h87.38c22.94,0,41.17-19,41.17-42v-11.2A8.4,8.4,0,0,0,176.46,125.21Z" transform="translate(-15.14 -13.18)"/><path class="cls-1" d="M93.31,149.89l.19.24,0,0,.12.15,0,0,.08.1,0,0,.12.13.11.11.06.06.11.11.13.12.06.05.09.08,0,0,.15.12,0,0,.29.23h0l.3.22,0,0,.3.2.07,0,.27.15.13.07.22.11.18.09.19.09.18.07.21.08.17.06.22.07.17.05.22.07.17,0,.24.05.16,0,.25.05.15,0,.26,0,.15,0h1.52l.15,0,.26,0,.15,0,.25-.05.16,0L102,153l.17,0,.22-.07.17-.05.22-.07.17-.06.21-.08.18-.07.19-.09.18-.09.23-.11.12-.07.27-.15.07,0,.3-.2,0,0,.3-.22h0l.29-.23,0,0,.15-.12,0,0,.1-.08,0-.05.13-.12.11-.11.07-.06.1-.11.12-.13,0,0,.08-.1,0,0,.13-.15,0,0,.19-.24L150.31,94a8.4,8.4,0,1,0-13.25-10.34L108.4,120.38V21.58a8.4,8.4,0,0,0-16.8,0v98.8L62.94,83.63A8.4,8.4,0,1,0,49.69,94Z" transform="translate(-15.14 -13.18)"/></svg>