<svg id="Layer_1" data-name="Layer 1" xmlns="http://www.w3.org/2000/svg" viewBox="0 0 100 73.01"><defs><style>.cls-1{fill:#c3272b;}</style></defs><path class="cls-1" d="M57.74,86.9a19.56,19.56,0,0,1-3.69-.4,101.37,101.37,0,0,1-10.69-3c-4.65-1.46-7.21-2.27-9-4.28s-1.81-4.32-1.81-8.06v-10a19.53,19.53,0,0,0-.21-4.2,7.22,7.22,0,0,0-3.07-4.07,38,38,0,0,0-4.92-2.43L10.81,44.31C6,42.14,3.39,41,1.71,38.71S0,34.08,0,29.82V27.23c0-5.4,0-8.67,3.15-11s7-2.31,14.29-2.31H82.56c7.25,0,11.24,0,14.3,2.31s3.14,5.64,3.14,11v2.59c0,4.26,0,6.61-1.71,8.89s-4.32,3.43-9.1,5.6a4,4,0,0,1-4.75-1.07c-1-1.35-.35-3.06,1.33-3.82h0c3.75-1.7,5.81-2.64,6.55-3.62s.7-2.48.7-6V27.23c0-3.75,0-6.23-.94-6.95s-4.41-.78-9.52-.78H17.44c-5.11,0-8.48,0-9.52.78s-.94,3.2-.94,7v2.59c0,3.5,0,5.08.7,6s2.8,1.92,6.55,3.62l13.55,6.14a39,39,0,0,1,6.08,3.08,12.67,12.67,0,0,1,5.3,7.08,20.89,20.89,0,0,1,.37,5.43v10c0,2.62,0,4.21.53,4.81s2.67,1.3,5.84,2.3c6.91,2.17,11.48,3.61,13.1,2.79s1.47-4.58,1.47-9.9v-10a20.89,20.89,0,0,1,.37-5.43,12.67,12.67,0,0,1,5.3-7.08,4.09,4.09,0,0,1,4.92.28,2.44,2.44,0,0,1-.34,4A7.22,7.22,0,0,0,67.65,57a19.53,19.53,0,0,0-.21,4.2v10A48.79,48.79,0,0,1,67,79.82a8,8,0,0,1-4.31,6A11,11,0,0,1,57.74,86.9Z" transform="translate(0 -13.88)"/></svg>