<svg id="Layer_1" data-name="Layer 1" xmlns="http://www.w3.org/2000/svg" viewBox="0 0 152 101.89"><defs><style>.cls-1{fill:#c3272b;}</style></defs><path class="cls-1" d="M24,49.05H47.56v94.39H37.32V135H33.13V110.72h4.19V93.1H33.13V68.87h4.19V59.3H24ZM176,81.19v53.43a8.2,8.2,0,0,1-8.19,8.2h0V151H115.47v-8.13h-5V151H58.18v-8.13H53.6V73H167.81A8.19,8.19,0,0,1,176,81.19ZM64.78,142.41H62.17v5.87h2.61Zm5.22,0H67.39v5.87H70Zm5.21,0h-2.6v5.87h2.6Zm5.22,0H77.82v5.87h2.61Zm5.22,0H83v5.87h2.61Zm5.22,0H88.26v5.87h2.61Zm5.22,0H93.48v5.87h2.61Zm5.21,0H98.7v5.87h2.6Zm5.22,0h-2.61v5.87h2.61Zm15.55,0h-2.61v5.87h2.61Zm5.22,0h-2.61v5.87h2.61Zm5.21,0h-2.6v5.87h2.6Zm5.22,0h-2.61v5.87h2.61Zm5.22,0h-2.61v5.87h2.61Zm5.22,0h-2.61v5.87h2.61Zm5.22,0h-2.61v5.87h2.61Zm5.21,0H156v5.87h2.6Zm5.22,0H161.2v5.87h2.61Zm1.25-34.68a22.83,22.83,0,1,0-22.83,22.82A22.83,22.83,0,0,0,165.06,107.73Zm-10.53.36,1.67-.9,1.62-.92c.52-.3,1-.59,1.5-.89l.11-.06a17.32,17.32,0,0,0-6-10.91l-.14.19-.67.92-.85,1.1c-.29.39-.62.79-1,1.21l-1.07,1.31-1.14,1.32h0c0-.43.05-.86.08-1.31,0-.62,0-1.25.07-1.89l.06-1.9c0-.63,0-1.25,0-1.86s0-1.19,0-1.75v-.13a17.52,17.52,0,0,0-12.47-.22,2.14,2.14,0,0,0,.1.22c.13.31.29.66.46,1s.34.82.52,1.28.38.94.57,1.45l.59,1.57.57,1.65h0l-1.1-.72c-.52-.35-1.06-.67-1.6-1l-1.62-1-1.6-.94c-.52-.3-1-.6-1.52-.86l-.11-.06a17.31,17.31,0,0,0-6.42,10.68l.23,0,1.13.12,1.37.18c.49.06,1,.15,1.54.24l1.66.27,1.72.34h0l-1.18.58c-.56.28-1.11.59-1.67.88s-1.13.61-1.68.9l-1.61.92c-.52.3-1,.59-1.51.89l-.11.07a17.35,17.35,0,0,0,6.05,10.9l.14-.19.67-.92.84-1.1c.3-.39.63-.79,1-1.21l1.06-1.3,1.15-1.32h0c0,.43,0,.87-.08,1.31,0,.62,0,1.26-.07,1.89s0,1.28-.06,1.9,0,1.26,0,1.86,0,1.19,0,1.75v.13a17.38,17.38,0,0,0,12.47.22,2.14,2.14,0,0,1-.1-.22l-.46-1c-.17-.4-.34-.83-.53-1.28s-.37-1-.56-1.45-.4-1-.6-1.58l-.57-1.65h0l1.09.73c.52.34,1.07.67,1.61,1l1.61,1,1.61.93c.52.31,1,.6,1.52.86l.11.07a17.4,17.4,0,0,0,6.42-10.69l-.23,0-1.14-.12-1.37-.19c-.48-.06-1-.15-1.54-.23l-1.66-.28-1.71-.33h0l1.17-.59C153.41,108.69,154,108.39,154.53,108.09Zm-43.09-.36a22.83,22.83,0,1,0-22.83,22.82A22.83,22.83,0,0,0,111.44,107.73Zm-10.53.36,1.67-.9,1.62-.92c.52-.3,1-.59,1.5-.89l.11-.06a17.32,17.32,0,0,0-6-10.91l-.14.19-.67.92c-.26.34-.54.71-.85,1.1s-.62.79-1,1.21l-1.07,1.31-1.14,1.32h0c0-.43.06-.86.08-1.31,0-.62,0-1.25.07-1.89s.05-1.27.06-1.9,0-1.25,0-1.86,0-1.19,0-1.75v-.13a17.52,17.52,0,0,0-12.47-.22,2.14,2.14,0,0,0,.1.22c.13.31.29.66.46,1s.34.82.52,1.28.38.94.57,1.45L84.9,97l.57,1.65h0l-1.1-.72c-.52-.35-1.06-.67-1.6-1l-1.62-1L79.56,95c-.52-.3-1-.6-1.52-.86L77.93,94a17.31,17.31,0,0,0-6.42,10.68l.23,0,1.13.12,1.37.18c.49.06,1,.15,1.54.24l1.66.27,1.72.34h0l-1.18.58-1.67.88c-.56.31-1.13.61-1.68.9l-1.61.92c-.52.3-1,.59-1.51.89l-.11.07a17.35,17.35,0,0,0,6,10.9l.14-.19.67-.92.84-1.1c.3-.39.63-.79,1-1.21l1.06-1.3L82.3,115h0l-.09,1.31c0,.62,0,1.26-.07,1.89s0,1.28-.06,1.9,0,1.26,0,1.86,0,1.19,0,1.75v.13a17.38,17.38,0,0,0,12.47.22,2.14,2.14,0,0,1-.1-.22l-.46-1c-.17-.4-.34-.83-.53-1.28s-.37-1-.56-1.45-.4-1-.6-1.58-.38-1.1-.57-1.65h0l1.09.73c.52.34,1.07.67,1.61,1l1.61,1,1.61.93c.52.31,1,.6,1.52.86l.11.07a17.4,17.4,0,0,0,6.42-10.69l-.23,0-1.14-.12L103,110.4c-.48-.06-1-.15-1.54-.23l-1.66-.28-1.71-.33h0l1.17-.59C99.79,108.69,100.34,108.39,100.91,108.09Z" transform="translate(-24 -49.05)"/></svg>