<svg id="Layer_1" data-name="Layer 1" xmlns="http://www.w3.org/2000/svg" viewBox="-21.28 -33.34 194.56 194.56"><defs><style>.cls-1{fill:gray;}</style></defs><path class="cls-1" d="M57.18,106.21v52.06a5.61,5.61,0,0,0,11.22,0V106.21a5.61,5.61,0,0,0-11.22,0Z" transform="translate(-24 -36.06)"/><path class="cls-1" d="M39.58,163.94H51.93v-61.8c0-.3.09-.6.09-.9,0-26.66,21.52-48.35,48-48.35s48,21.69,48,48.35a8,8,0,0,0,.12,1.2v61.5h12.35c8.59,0,15.57-7.22,15.57-16.12V115.59a16,16,0,0,0-11.25-15.47C164.16,64.7,135.34,36.06,100,36.06S35.81,64.71,35.22,100.14A16,16,0,0,0,24,115.6v32.22A15.86,15.86,0,0,0,39.58,163.94Z" transform="translate(-24 -36.06)"/><path class="cls-1" d="M131.61,106.21v52.06a5.61,5.61,0,1,0,11.21,0V106.21a5.61,5.61,0,1,0-11.21,0Z" transform="translate(-24 -36.06)"/></svg>