<svg id="Layer_1" data-name="Layer 1" xmlns="http://www.w3.org/2000/svg" viewBox="0 0 99.56 42"><defs><style>.cls-1{fill:#b3b3b3;}</style></defs><rect class="cls-1" y="0.59" width="7.84" height="7.84"/><path class="cls-1" d="M78.53,41.61a10.92,10.92,0,0,0-4.88,1.08,10.5,10.5,0,0,0-3.69,3l-.41.53V42.19H62.21V70.41H69.6V55.91c.09-2.65.73-4.6,2-5.85a6.39,6.39,0,0,1,4.72-2,6.1,6.1,0,0,1,4.88,2,8.29,8.29,0,0,1,1.61,5.41v15h7.51v-16c0-4-1-7.2-3.1-9.43S82.21,41.61,78.53,41.61Z" transform="translate(-50.22 -29)"/><rect class="cls-1" x="0.22" y="13.19" width="7.42" height="28.22"/><path class="cls-1" d="M101.78,31.18H94.34v27.3a24.63,24.63,0,0,0,.58,5.83,8.1,8.1,0,0,0,2,3.73,8,8,0,0,0,3.63,2,21.6,21.6,0,0,0,5.66.61h1V63.78a17.42,17.42,0,0,1-2.68-.17,3,3,0,0,1-1.76-.78,3.14,3.14,0,0,1-.78-1.67,18.29,18.29,0,0,1-.17-2.74V48.55h5.39V42.19h-5.39Z" transform="translate(-50.22 -29)"/><path class="cls-1" d="M134.44,45.87a13.44,13.44,0,0,0-4.6-3.12,15.11,15.11,0,0,0-5.91-1.12,14.58,14.58,0,0,0-5.75,1.15,15,15,0,0,0-4.65,3.12,14.64,14.64,0,0,0-3.13,4.66,14.18,14.18,0,0,0-1.14,5.74,15.09,15.09,0,0,0,1.09,5.75,14.3,14.3,0,0,0,3,4.66,13.85,13.85,0,0,0,4.71,3.12A15.43,15.43,0,0,0,124.15,71a16,16,0,0,0,12.55-5.55l-5.35-4.07a9.78,9.78,0,0,1-7.14,3.15,8.38,8.38,0,0,1-5.13-1.45,7.12,7.12,0,0,1-2.68-3.93l-.09-.25h22.18V56.25a15.67,15.67,0,0,0-1.06-5.72A15.31,15.31,0,0,0,134.44,45.87Zm-18.07,7.78c0-2.06,2.37-5.66,7.47-5.69s7.51,3.6,7.51,5.67Z" transform="translate(-50.22 -29)"/><rect class="cls-1" x="92.12" width="7.45" height="41.41"/></svg>