<svg id="Layer_1" data-name="Layer 1" xmlns="http://www.w3.org/2000/svg" viewBox="-21.28 -44.08 194.56 194.56"><defs><style>.cls-1{fill:gray;fill-rule:evenodd;}</style></defs><path class="cls-1" d="M176,84.8v-.5a140.9,140.9,0,0,0-.62-17.19c-.67-5-2.18-9.76-6.06-13.63s-8.65-5.39-13.63-6.06a140.9,140.9,0,0,0-17.19-.62h-77a140.9,140.9,0,0,0-17.19.62c-5,.67-9.76,2.18-13.63,6.06s-5.39,8.65-6.06,13.63A140.9,140.9,0,0,0,24,84.3h0v31.4h0a140.9,140.9,0,0,0,.62,17.19c.67,5,2.18,9.76,6.06,13.63s8.65,5.39,13.63,6.06a140.9,140.9,0,0,0,17.19.62h77a140.9,140.9,0,0,0,17.19-.62c5-.67,9.76-2.18,13.63-6.06s5.39-8.65,6.06-13.63A140.9,140.9,0,0,0,176,115.7Zm-60.8,38a7.6,7.6,0,0,0,0-15.2H84.8a7.6,7.6,0,0,0,0,15.2Zm26.6-45.6a7.6,7.6,0,0,1,7.6,7.6v.08a7.6,7.6,0,1,1-15.2,0V84.8A7.6,7.6,0,0,1,141.8,77.2Zm-19,7.52a7.6,7.6,0,1,0-15.2,0v.08a7.6,7.6,0,0,0,15.2,0Zm19,22.8a7.6,7.6,0,0,1,7.6,7.6v.08a7.6,7.6,0,1,1-15.2,0v-.08A7.6,7.6,0,0,1,141.8,107.52Zm-76,7.68a7.6,7.6,0,1,0-15.2,0v.08a7.6,7.6,0,1,0,15.2,0Zm19-38a7.6,7.6,0,0,1,7.6,7.6v.08a7.6,7.6,0,0,1-15.2,0V84.8A7.6,7.6,0,0,1,84.8,77.2Zm-19,7.6a7.6,7.6,0,1,0-15.2,0v.08a7.6,7.6,0,0,0,15.2,0Z" transform="translate(-24 -46.8)"/></svg>