<svg id="Layer_1" data-name="Layer 1" xmlns="http://www.w3.org/2000/svg" viewBox="-21.42 -56.47 195.84 195.84"><defs><style>.cls-1{fill:gray;}</style></defs><path class="cls-1" d="M176.5,74V58.55H23.5V74a18.16,18.16,0,0,1,0,36.32V125.8h153V110.33a18.16,18.16,0,0,1,0-36.32ZM74.34,103.12H52.44V81.22h21.9Zm36.61,0H89.05V81.22H111Zm36.61,0h-21.9V81.22h21.9Z" transform="translate(-23.5 -58.55)"/><polygon class="cls-1" points="0 82.91 6.02 82.91 6.02 76.86 12.07 76.86 12.07 82.91 18.13 82.91 18.13 76.86 24.18 76.86 24.18 82.91 30.23 82.91 30.23 76.86 36.28 76.86 36.28 82.91 42.34 82.91 42.34 76.86 48.39 76.86 48.39 82.91 54.44 82.91 54.44 76.86 60.49 76.86 60.49 82.91 66.55 82.91 66.55 76.86 72.6 76.86 72.6 82.91 78.65 82.91 78.65 76.86 84.7 76.86 84.7 82.91 90.76 82.91 90.76 76.86 96.81 76.86 96.81 82.91 102.86 82.91 102.86 70.8 0 70.8 0 82.91"/><polygon class="cls-1" points="110.63 82.91 116.68 82.91 116.68 76.86 122.74 76.86 122.74 82.91 128.79 82.91 128.79 76.86 134.84 76.86 134.84 82.91 140.9 82.91 140.9 76.86 146.95 76.86 146.95 82.91 153 82.91 153 70.8 110.63 70.8 110.63 82.91"/></svg>