<svg id="Layer_1" data-name="Layer 1" xmlns="http://www.w3.org/2000/svg" viewBox="-21.28 -38.71 194.56 194.56"><defs><style>.cls-1{fill:#c3272b;}</style></defs><path class="cls-1" d="M157.6,41.43H42.4A18.4,18.4,0,0,0,24,59.83v61.22a18.39,18.39,0,0,0,18.4,18.39H157.6A18.39,18.39,0,0,0,176,121.05V59.83A18.4,18.4,0,0,0,157.6,41.43Zm5.69,76.83a8.47,8.47,0,0,1-8.47,8.47H45.18a8.47,8.47,0,0,1-8.47-8.47V62.61a8.47,8.47,0,0,1,8.47-8.47H154.82a8.47,8.47,0,0,1,8.47,8.47Z" transform="translate(-24 -41.43)"/><polygon class="cls-1" points="99.07 107.67 52.93 107.67 59.74 94.61 92.26 94.61 99.07 107.67"/><path class="cls-1" d="M130.76,158.57H69.24A2.64,2.64,0,0,1,66.75,155l1.5-4.16a2.63,2.63,0,0,1,2.49-1.76h58.52a2.63,2.63,0,0,1,2.49,1.76l1.51,4.16A2.65,2.65,0,0,1,130.76,158.57Z" transform="translate(-24 -41.43)"/></svg>