<svg id="Layer_1" data-name="Layer 1" xmlns="http://www.w3.org/2000/svg" viewBox="0 0 152 112.16"><defs><style>.cls-1{fill:#c3272b;}</style></defs><path class="cls-1" d="M60.36,89.82l-5.88-5.88a28.39,28.39,0,0,0,0,32.12l5.88-5.88a20.28,20.28,0,0,1,0-20.36Zm17.56.39A9.79,9.79,0,1,0,87.71,100,9.79,9.79,0,0,0,77.92,90.21ZM88.1,117.56a20.22,20.22,0,0,1-20.36,0l-5.88,5.88a28.34,28.34,0,0,0,32.12,0Zm-10.18-46a28.24,28.24,0,0,0-16.06,5l5.88,5.88a20.22,20.22,0,0,1,20.36,0L94,76.56A28.19,28.19,0,0,0,77.92,71.57Zm23.45,12.37-5.88,5.88a20.28,20.28,0,0,1,0,20.36l5.88,5.88a28.39,28.39,0,0,0,0-32.12Zm0,0-5.88,5.88a20.28,20.28,0,0,1,0,20.36l5.88,5.88a28.39,28.39,0,0,0,0-32.12ZM77.92,71.57a28.24,28.24,0,0,0-16.06,5l5.88,5.88a20.22,20.22,0,0,1,20.36,0L94,76.56A28.19,28.19,0,0,0,77.92,71.57Zm10.18,46a20.22,20.22,0,0,1-20.36,0l-5.88,5.88a28.34,28.34,0,0,0,32.12,0ZM77.92,90.21A9.79,9.79,0,1,0,87.71,100,9.79,9.79,0,0,0,77.92,90.21Zm-17.56-.39-5.88-5.88a28.39,28.39,0,0,0,0,32.12l5.88-5.88a20.28,20.28,0,0,1,0-20.36Zm0,0-5.88-5.88a28.39,28.39,0,0,0,0,32.12l5.88-5.88a20.28,20.28,0,0,1,0-20.36Zm17.56.39A9.79,9.79,0,1,0,87.71,100,9.79,9.79,0,0,0,77.92,90.21ZM88.1,117.56a20.22,20.22,0,0,1-20.36,0l-5.88,5.88a28.34,28.34,0,0,0,32.12,0Zm-10.18-46a28.24,28.24,0,0,0-16.06,5l5.88,5.88a20.22,20.22,0,0,1,20.36,0L94,76.56A28.19,28.19,0,0,0,77.92,71.57Zm23.45,12.37-5.88,5.88a20.28,20.28,0,0,1,0,20.36l5.88,5.88a28.39,28.39,0,0,0,0-32.12Zm0,0-5.88,5.88a20.28,20.28,0,0,1,0,20.36l5.88,5.88a28.39,28.39,0,0,0,0-32.12ZM77.92,71.57a28.24,28.24,0,0,0-16.06,5l5.88,5.88a20.22,20.22,0,0,1,20.36,0L94,76.56A28.19,28.19,0,0,0,77.92,71.57Zm10.18,46a20.22,20.22,0,0,1-20.36,0l-5.88,5.88a28.34,28.34,0,0,0,32.12,0ZM77.92,90.21A9.79,9.79,0,1,0,87.71,100,9.79,9.79,0,0,0,77.92,90.21Zm-17.56-.39-5.88-5.88a28.39,28.39,0,0,0,0,32.12l5.88-5.88a20.28,20.28,0,0,1,0-20.36Zm0,0-5.88-5.88a28.39,28.39,0,0,0,0,32.12l5.88-5.88a20.28,20.28,0,0,1,0-20.36Zm17.56.39A9.79,9.79,0,1,0,87.71,100,9.79,9.79,0,0,0,77.92,90.21ZM88.1,117.56a20.22,20.22,0,0,1-20.36,0l-5.88,5.88a28.34,28.34,0,0,0,32.12,0Zm-10.18-46a28.24,28.24,0,0,0-16.06,5l5.88,5.88a20.22,20.22,0,0,1,20.36,0L94,76.56A28.19,28.19,0,0,0,77.92,71.57Zm23.45,12.37-5.88,5.88a20.28,20.28,0,0,1,0,20.36l5.88,5.88a28.39,28.39,0,0,0,0-32.12Zm53.55-13.09H139.39a.79.79,0,0,0-.78.77V87.16a.79.79,0,0,0,.78.77h15.53a.78.78,0,0,0,.77-.77V71.62A.78.78,0,0,0,154.92,70.85Zm0,0H139.39a.79.79,0,0,0-.78.77V87.16a.79.79,0,0,0,.78.77h15.53a.78.78,0,0,0,.77-.77V71.62A.78.78,0,0,0,154.92,70.85ZM101.37,83.94l-5.88,5.88a20.28,20.28,0,0,1,0,20.36l5.88,5.88a28.39,28.39,0,0,0,0-32.12ZM61.86,76.56l5.88,5.88a20.22,20.22,0,0,1,20.36,0L94,76.56a28.34,28.34,0,0,0-32.12,0Zm16.06,43.75a20.12,20.12,0,0,1-10.18-2.75l-5.88,5.88a28.34,28.34,0,0,0,32.12,0l-5.88-5.88A20.09,20.09,0,0,1,77.92,120.31ZM87.71,100a9.79,9.79,0,1,0-9.79,9.79A9.79,9.79,0,0,0,87.71,100ZM54.48,83.94a28.39,28.39,0,0,0,0,32.12l5.88-5.88a20.28,20.28,0,0,1,0-20.36Zm99.51-40H46a22,22,0,0,0-22,22v68.14a22,22,0,0,0,22,22H154a22,22,0,0,0,22-22V65.93A22,22,0,0,0,154,43.92ZM41.81,54.51a5.24,5.24,0,1,1-5.24,5.24A5.24,5.24,0,0,1,41.81,54.51Zm0,91a5.24,5.24,0,1,1,5.24-5.24A5.24,5.24,0,0,1,41.81,145.49Zm36.11-7.2A38.29,38.29,0,1,1,116.21,100,38.29,38.29,0,0,1,77.92,138.29Zm36.12,7.2a5.24,5.24,0,1,1,5.24-5.24A5.24,5.24,0,0,1,114,145.49ZM114,65a5.24,5.24,0,1,1,5.24-5.23A5.24,5.24,0,0,1,114,65Zm49.39,63.4a8.52,8.52,0,0,1-8.51,8.51H139.39a8.52,8.52,0,0,1-8.51-8.51V112.84a8.51,8.51,0,0,1,8.51-8.5h15.53a8.51,8.51,0,0,1,8.51,8.5Zm0-41.22a8.51,8.51,0,0,1-8.51,8.5H139.39a8.51,8.51,0,0,1-8.51-8.5V71.62a8.52,8.52,0,0,1,8.51-8.51h15.53a8.52,8.52,0,0,1,8.51,8.51Zm-8.51,24.91H139.39a.79.79,0,0,0-.78.77v15.54a.79.79,0,0,0,.78.77h15.53a.78.78,0,0,0,.77-.77V112.84A.78.78,0,0,0,154.92,112.07Zm0-41.22H139.39a.79.79,0,0,0-.78.77V87.16a.79.79,0,0,0,.78.77h15.53a.78.78,0,0,0,.77-.77V71.62A.78.78,0,0,0,154.92,70.85ZM101.37,83.94l-5.88,5.88a20.28,20.28,0,0,1,0,20.36l5.88,5.88a28.39,28.39,0,0,0,0-32.12ZM61.86,76.56l5.88,5.88a20.22,20.22,0,0,1,20.36,0L94,76.56a28.34,28.34,0,0,0-32.12,0Zm16.06,43.75a20.12,20.12,0,0,1-10.18-2.75l-5.88,5.88a28.34,28.34,0,0,0,32.12,0l-5.88-5.88A20.09,20.09,0,0,1,77.92,120.31ZM87.71,100a9.79,9.79,0,1,0-9.79,9.79A9.79,9.79,0,0,0,87.71,100ZM54.48,83.94a28.39,28.39,0,0,0,0,32.12l5.88-5.88a20.28,20.28,0,0,1,0-20.36Zm5.88,5.88-5.88-5.88a28.39,28.39,0,0,0,0,32.12l5.88-5.88a20.28,20.28,0,0,1,0-20.36Zm17.56.39A9.79,9.79,0,1,0,87.71,100,9.79,9.79,0,0,0,77.92,90.21ZM88.1,117.56a20.22,20.22,0,0,1-20.36,0l-5.88,5.88a28.34,28.34,0,0,0,32.12,0Zm-10.18-46a28.24,28.24,0,0,0-16.06,5l5.88,5.88a20.22,20.22,0,0,1,20.36,0L94,76.56A28.19,28.19,0,0,0,77.92,71.57Zm23.45,12.37-5.88,5.88a20.28,20.28,0,0,1,0,20.36l5.88,5.88a28.39,28.39,0,0,0,0-32.12Zm0,0-5.88,5.88a20.28,20.28,0,0,1,0,20.36l5.88,5.88a28.39,28.39,0,0,0,0-32.12ZM77.92,71.57a28.24,28.24,0,0,0-16.06,5l5.88,5.88a20.22,20.22,0,0,1,20.36,0L94,76.56A28.19,28.19,0,0,0,77.92,71.57Zm10.18,46a20.22,20.22,0,0,1-20.36,0l-5.88,5.88a28.34,28.34,0,0,0,32.12,0ZM77.92,90.21A9.79,9.79,0,1,0,87.71,100,9.79,9.79,0,0,0,77.92,90.21Zm-17.56-.39-5.88-5.88a28.39,28.39,0,0,0,0,32.12l5.88-5.88a20.28,20.28,0,0,1,0-20.36Zm0,0-5.88-5.88a28.39,28.39,0,0,0,0,32.12l5.88-5.88a20.28,20.28,0,0,1,0-20.36Zm17.56.39A9.79,9.79,0,1,0,87.71,100,9.79,9.79,0,0,0,77.92,90.21ZM88.1,117.56a20.22,20.22,0,0,1-20.36,0l-5.88,5.88a28.34,28.34,0,0,0,32.12,0Zm-10.18-46a28.24,28.24,0,0,0-16.06,5l5.88,5.88a20.22,20.22,0,0,1,20.36,0L94,76.56A28.19,28.19,0,0,0,77.92,71.57Zm23.45,12.37-5.88,5.88a20.28,20.28,0,0,1,0,20.36l5.88,5.88a28.39,28.39,0,0,0,0-32.12Zm0,0-5.88,5.88a20.28,20.28,0,0,1,0,20.36l5.88,5.88a28.39,28.39,0,0,0,0-32.12ZM77.92,71.57a28.24,28.24,0,0,0-16.06,5l5.88,5.88a20.22,20.22,0,0,1,20.36,0L94,76.56A28.19,28.19,0,0,0,77.92,71.57Zm10.18,46a20.22,20.22,0,0,1-20.36,0l-5.88,5.88a28.34,28.34,0,0,0,32.12,0ZM77.92,90.21A9.79,9.79,0,1,0,87.71,100,9.79,9.79,0,0,0,77.92,90.21Zm-17.56-.39-5.88-5.88a28.39,28.39,0,0,0,0,32.12l5.88-5.88a20.28,20.28,0,0,1,0-20.36Z" transform="translate(-24 -43.92)"/><path class="cls-1" d="M60.36,89.82a20.28,20.28,0,0,0,0,20.36l-5.88,5.88a28.39,28.39,0,0,1,0-32.12Z" transform="translate(-24 -43.92)"/><path class="cls-1" d="M77.92,109.79A9.79,9.79,0,1,1,87.71,100,9.79,9.79,0,0,1,77.92,109.79Z" transform="translate(-24 -43.92)"/><path class="cls-1" d="M88.1,117.56,94,123.44a28.34,28.34,0,0,1-32.12,0l5.88-5.88a20.22,20.22,0,0,0,20.36,0Z" transform="translate(-24 -43.92)"/><path class="cls-1" d="M77.92,71.57a28.19,28.19,0,0,1,16.06,5L88.1,82.44a20.22,20.22,0,0,0-20.36,0l-5.88-5.88A28.24,28.24,0,0,1,77.92,71.57Z" transform="translate(-24 -43.92)"/><path class="cls-1" d="M106.35,100a28.26,28.26,0,0,1-5,16.06l-5.88-5.88a20.28,20.28,0,0,0,0-20.36l5.88-5.88A28.26,28.26,0,0,1,106.35,100Z" transform="translate(-24 -43.92)"/><path class="cls-1" d="M87.71,100a9.79,9.79,0,1,1-9.79-9.79A9.79,9.79,0,0,1,87.71,100Z" transform="translate(-24 -43.92)"/><path class="cls-1" d="M88.1,117.56a20.22,20.22,0,0,1-20.36,0l-5.88,5.88a28.34,28.34,0,0,0,32.12,0Zm13.27-33.62-5.88,5.88a20.28,20.28,0,0,1,0,20.36l5.88,5.88a28.39,28.39,0,0,0,0-32.12ZM77.92,71.57a28.24,28.24,0,0,0-16.06,5l5.88,5.88a20.22,20.22,0,0,1,20.36,0L94,76.56A28.19,28.19,0,0,0,77.92,71.57ZM60.36,89.82l-5.88-5.88a28.39,28.39,0,0,0,0,32.12l5.88-5.88a20.28,20.28,0,0,1,0-20.36Z" transform="translate(-24 -43.92)"/></svg>