<svg id="Layer_1" data-name="Layer 1" xmlns="http://www.w3.org/2000/svg" viewBox="-25.35 -37.04 231.80 231.80"><defs><style>.cls-1{fill:#f5f5f7;fill-rule:evenodd;}</style></defs><path class="cls-1" d="M23.4,89.15A77,77,0,0,1,161.17,51.29a8.76,8.76,0,0,1-13.93,10.64A59.51,59.51,0,0,0,41.08,89.15h4.24a8.76,8.76,0,0,1,6.19,15L37.86,117.74a8.75,8.75,0,0,1-12.38,0L11.83,104.11a8.76,8.76,0,0,1,6.19-15Z" transform="translate(-9.26 -21)"/><path class="cls-1" d="M174.13,82a8.75,8.75,0,0,0-12.38,0L148.1,95.61a8.76,8.76,0,0,0,6.19,15h4.24A59.52,59.52,0,0,1,52.52,138a8.76,8.76,0,1,0-13.88,10.7,77,77,0,0,0,137.57-38.12h5.38a8.76,8.76,0,0,0,6.19-15Z" transform="translate(-9.26 -21)"/></svg>