<svg id="Layer_1" data-name="Layer 1" xmlns="http://www.w3.org/2000/svg" viewBox="-24.36 -24.36 222.72 222.72"><defs><style>.cls-1{fill:#4d4d4d;}</style></defs><path class="cls-1" d="M187,21.32c0-.24,0-.49,0-.73s0-.27-.06-.4l-.06-.41c0-.15-.07-.3-.11-.44l-.09-.36-.15-.42c0-.12-.08-.24-.13-.36s-.12-.26-.18-.38-.11-.25-.17-.37-.14-.24-.22-.36-.13-.23-.21-.34-.19-.26-.28-.39a2.78,2.78,0,0,0-.21-.27,7.68,7.68,0,0,0-1.17-1.18l-.28-.21-.39-.28c-.11-.08-.23-.15-.35-.22l-.35-.21-.38-.18-.37-.17-.37-.13-.41-.15-.37-.09-.43-.11c-.14,0-.28,0-.43-.06s-.25,0-.38-.06-.53,0-.8,0H132.69a8.42,8.42,0,0,0,0,16.84h25.57L94.05,94.05A8.41,8.41,0,0,0,106,106l64.21-64.2V67.91a8.42,8.42,0,0,0,16.84,0V21.32Z" transform="translate(-13 -13)"/><path class="cls-1" d="M178.58,91.58a8.42,8.42,0,0,0-8.42,8.42v33.68a36.48,36.48,0,0,1-36.48,36.48H66.32a36.48,36.48,0,0,1-36.48-36.48V66.32A36.48,36.48,0,0,1,66.32,29.84H100A8.42,8.42,0,1,0,100,13H66.32A53.32,53.32,0,0,0,13,66.32v67.36A53.32,53.32,0,0,0,66.32,187h67.36A53.32,53.32,0,0,0,187,133.68V100A8.42,8.42,0,0,0,178.58,91.58Z" transform="translate(-13 -13)"/></svg>