<svg id="Layer_1" data-name="Layer 1" xmlns="http://www.w3.org/2000/svg" viewBox="-46.35 -26.88 245.76 245.76"><defs><style>.cls-1{fill:gray;}</style></defs><path class="cls-1" d="M119.82,78.88A19.62,19.62,0,1,0,99.3,99.41,19.67,19.67,0,0,0,119.82,78.88Zm0,0A19.62,19.62,0,1,0,99.3,99.41,19.67,19.67,0,0,0,119.82,78.88Zm0,0A19.62,19.62,0,1,0,99.3,99.41,19.67,19.67,0,0,0,119.82,78.88Zm0,0A19.62,19.62,0,1,0,99.3,99.41,19.67,19.67,0,0,0,119.82,78.88Zm0,0A19.62,19.62,0,1,0,99.3,99.41,19.67,19.67,0,0,0,119.82,78.88Zm0,0A19.62,19.62,0,1,0,99.3,99.41,19.67,19.67,0,0,0,119.82,78.88Zm0,0A19.62,19.62,0,1,0,99.3,99.41,19.67,19.67,0,0,0,119.82,78.88Zm0,0A19.62,19.62,0,1,0,99.3,99.41,19.67,19.67,0,0,0,119.82,78.88Zm0,0A19.62,19.62,0,1,0,99.3,99.41,19.67,19.67,0,0,0,119.82,78.88ZM146.67,4H53.33A29.86,29.86,0,0,0,23.47,33.87V166.13A29.86,29.86,0,0,0,53.33,196h93.34a29.86,29.86,0,0,0,29.86-29.87V33.87A29.86,29.86,0,0,0,146.67,4ZM43.28,32.43a9.55,9.55,0,1,1,10,10A9.58,9.58,0,0,1,43.28,32.43ZM62.35,167.7a9.55,9.55,0,1,1-10-10A9.59,9.59,0,0,1,62.35,167.7Zm38.21-39.21a46.89,46.89,0,0,1-15.51-2.63l4-12a10.07,10.07,0,0,0-16.69-10.27l-8,8a47,47,0,0,1-11-30.42,47.23,47.23,0,1,1,47.23,47.34Zm57.29,39.21a9.55,9.55,0,1,1-10-10A9.6,9.6,0,0,1,157.85,167.7Zm0-134.26a9.55,9.55,0,1,1-10-10A9.59,9.59,0,0,1,157.85,33.44ZM101.14,60.22a19.62,19.62,0,1,0,18.68,18.66A19.64,19.64,0,0,0,101.14,60.22Zm18.68,18.66A19.62,19.62,0,1,0,99.3,99.41,19.67,19.67,0,0,0,119.82,78.88Zm0,0A19.62,19.62,0,1,0,99.3,99.41,19.67,19.67,0,0,0,119.82,78.88Zm0,0A19.62,19.62,0,1,0,99.3,99.41,19.67,19.67,0,0,0,119.82,78.88Zm0,0A19.62,19.62,0,1,0,99.3,99.41,19.67,19.67,0,0,0,119.82,78.88Zm0,0A19.62,19.62,0,1,0,99.3,99.41,19.67,19.67,0,0,0,119.82,78.88Zm0,0A19.62,19.62,0,1,0,99.3,99.41,19.67,19.67,0,0,0,119.82,78.88Zm0,0A19.62,19.62,0,1,0,99.3,99.41,19.67,19.67,0,0,0,119.82,78.88Zm0,0A19.62,19.62,0,1,0,99.3,99.41,19.67,19.67,0,0,0,119.82,78.88Zm0,0A19.62,19.62,0,1,0,99.3,99.41,19.67,19.67,0,0,0,119.82,78.88Z" transform="translate(-23.47 -4)"/></svg>