<svg id="Layer_1" data-name="Layer 1" xmlns="http://www.w3.org/2000/svg" viewBox="0 0 149 191.59"><defs><style>.cls-1{fill:gray;fill-rule:evenodd;}</style></defs><path class="cls-1" d="M73.25,119.9h53.5a13.19,13.19,0,0,0,13.17-13.18V4.21H60.08V106.72A13.19,13.19,0,0,0,73.25,119.9Zm32.21-93.78V55H121.1L94.55,94.87v-29H78.9Z" transform="translate(-25.5 -4.21)"/><path class="cls-1" d="M148.19,4.88V106.72a21.44,21.44,0,0,1-21.44,21.45H73.25a21.44,21.44,0,0,1-21.44-21.45V4.88A33,33,0,0,0,25.5,37.21V162.79a33,33,0,0,0,33,33h83a33,33,0,0,0,33-33V37.21A33,33,0,0,0,148.19,4.88ZM100,173.86a13.47,13.47,0,1,1,13.46-13.46A13.46,13.46,0,0,1,100,173.86Z" transform="translate(-25.5 -4.21)"/></svg>