<svg id="Layer_1" data-name="Layer 1" xmlns="http://www.w3.org/2000/svg" viewBox="0 0 191.84 192"><defs><style>.cls-1{fill:#4d4d4d;fill-rule:evenodd;}</style></defs><path class="cls-1" d="M12.81,4a8.73,8.73,0,1,0,0,17.45H23.45l31.1,124.43a26.17,26.17,0,1,0,35.31,15.21h37.89a26.19,26.19,0,1,0,24.69-17.45H72l-4.37-17.46h84.82c18,0,28.82-11.38,34.82-24,5.85-12.28,7.89-27,8.6-37.63,1-14.87-11.3-25.69-24.9-25.69H45.8L40.38,17.22A17.45,17.45,0,0,0,23.45,4ZM152.44,108.73H63.26L50.17,56.36H171c4.82,0,7.72,3.55,7.49,7.08-.67,10-2.52,22-6.95,31.28C167.21,103.71,161.35,108.73,152.44,108.73Zm0,69.76a8.67,8.67,0,1,1,8.68-8.67A8.67,8.67,0,0,1,152.44,178.49ZM56.5,169.82a8.68,8.68,0,1,0,8.67-8.67A8.67,8.67,0,0,0,56.5,169.82Z" transform="translate(-4.08 -4)"/></svg>