<svg id="Layer_1" data-name="Layer 1" xmlns="http://www.w3.org/2000/svg" viewBox="0 0 476 389.45"><defs><style>.cls-1{fill:#4d4d4d;}</style></defs><path class="cls-1" d="M12,163.5a21.64,21.64,0,0,1,21.64-21.64H197.77L148.16,92.25a21.64,21.64,0,0,1,30.06-31.13c.18.18.36.35.53.53L265.3,148.2a21.64,21.64,0,0,1,0,30.59l-86.55,86.55a21.63,21.63,0,1,1-31.12-30.06l.53-.54,49.61-49.61H33.64A21.63,21.63,0,0,1,12,163.5ZM466.36,315H302.23l49.61-49.61a21.64,21.64,0,0,0-30.59-30.6L234.7,321.29a21.64,21.64,0,0,0,0,30.59l86.55,86.55a21.63,21.63,0,0,0,30.59-30.59l-49.61-49.62H466.36a21.64,21.64,0,1,0,0-43.27Z" transform="translate(-12 -55.05)"/></svg>