<svg id="Layer_1" data-name="Layer 1" xmlns="http://www.w3.org/2000/svg" viewBox="0 0 196.22 154.18"><defs><style>.cls-1{fill:#4d4d4d;}</style></defs><path class="cls-1" d="M93,106.17a7,7,0,1,0,0-14H22.91a7,7,0,1,0,0,14Z" transform="translate(-1.89 -22.08)"/><path class="cls-1" d="M72,64.13a7,7,0,0,0-7-7H8.9a7,7,0,1,0,0,14H65A7,7,0,0,0,72,64.13Z" transform="translate(-1.89 -22.08)"/><path class="cls-1" d="M197.54,96.41l-21-49.06a7,7,0,0,0-6.44-4.25h-21a21,21,0,0,0-21-21H36.93a7,7,0,1,0,0,14h93A5.09,5.09,0,0,1,135,41.18v82.91a28,28,0,0,0-13,17.12H78a28,28,0,1,0,0,14h44a27.9,27.9,0,0,0,54.07,0h15a7,7,0,0,0,7-7v-49A6.89,6.89,0,0,0,197.54,96.41ZM50.94,162.24a14,14,0,1,1,14-14A14,14,0,0,1,50.94,162.24ZM149.06,57.12h16.4l15,35H149.06Zm0,105.12a14,14,0,1,1,14-14A14,14,0,0,1,149.06,162.24Zm35-21h-8a28,28,0,0,0-27-21v-14h35Z" transform="translate(-1.89 -22.08)"/></svg>