<svg id="Layer_1" data-name="Layer 1" xmlns="http://www.w3.org/2000/svg" viewBox="0 0 458.26 458.26"><defs><style>.cls-1{fill:#4d4d4d;}</style></defs><path class="cls-1" d="M462.12,156.94A229.13,229.13,0,0,0,21.87,246.13a226.87,226.87,0,0,0,23.92,102,18.88,18.88,0,0,1,1.71,13.21L34.81,408.82a43.69,43.69,0,0,0,53.5,53.5l47.45-12.69A18.88,18.88,0,0,1,149,451.34,229.06,229.06,0,0,0,480.13,246.13,227.76,227.76,0,0,0,462.12,156.94ZM251,443.29a195.11,195.11,0,0,1-87.78-20.57,52.45,52.45,0,0,0-23.32-5.59,48,48,0,0,0-12.41,1.61l-47.44,12.7a11.73,11.73,0,0,1-14.36-14.36l12.7-47.44a50.8,50.8,0,0,0-4-35.73,195.11,195.11,0,0,1-20.57-87.78C53.84,137.42,142.29,49,251,49s197.16,88.45,197.16,197.16S359.71,443.29,251,443.29Z" transform="translate(-21.87 -17)"/><path class="cls-1" d="M336.26,198.17H165.74a16,16,0,0,0,0,32H336.26a16,16,0,0,0,0-32Z" transform="translate(-21.87 -17)"/><path class="cls-1" d="M283,272.77H165.74a16,16,0,0,0,0,32H283a16,16,0,0,0,0-32Z" transform="translate(-21.87 -17)"/></svg>