<svg id="Layer_1" data-name="Layer 1" xmlns="http://www.w3.org/2000/svg" viewBox="0 0 160 189.83"><defs><style>.cls-1{fill:#4d4d4d;}</style></defs><g id="Shopicon"><path class="cls-1" d="M20,114.32h0C20,158,54.73,194,98.37,194.9A80.09,80.09,0,0,0,180,114.55c-.2-43.8-36.8-79.63-80.6-79.63H77.14V8.24A3.15,3.15,0,0,0,71.76,6L33.66,44.12a3.14,3.14,0,0,0,0,4.45l38.1,38.11a3.15,3.15,0,0,0,5.38-2.23V57.77H99.43c31.91,0,58.19,26.12,57.71,58a57.21,57.21,0,0,1-56.8,56.26c-31.77.19-57.48-25.88-57.48-57.66h0a10.91,10.91,0,0,0-10.92-10.91H30.83A10.83,10.83,0,0,0,20,114.32Z" transform="translate(-20 -5.08)"/></g></svg>