<svg id="Layer_1" data-name="Layer 1" xmlns="http://www.w3.org/2000/svg" viewBox="0 0 96.74 96.74"><defs><style>.cls-1{fill:#00c68c;fill-rule:evenodd;}</style></defs><path class="cls-1" d="M37.28,7.49a15.17,15.17,0,0,1,24.7,0l1,1.35a5,5,0,0,0,4.67,2.08l4.3-.47A15.17,15.17,0,0,1,88.68,27.21l-.47,4.3a5,5,0,0,0,2.08,4.67l1.35,1a15.17,15.17,0,0,1,0,24.7l-1.35,1a5,5,0,0,0-2.08,4.67l.47,4.3A15.17,15.17,0,0,1,71.92,88.55l-4.3-.47A5,5,0,0,0,63,90.16l-1,1.35a15.17,15.17,0,0,1-24.7,0l-1-1.35a5,5,0,0,0-4.67-2.08l-4.3.47A15.17,15.17,0,0,1,10.58,71.79l.48-4.3A5.06,5.06,0,0,0,9,62.82l-1.35-1a15.17,15.17,0,0,1,0-24.7l1.35-1a5.06,5.06,0,0,0,2.09-4.67l-.48-4.3A15.17,15.17,0,0,1,27.34,10.45l4.3.47a5,5,0,0,0,4.67-2.08ZM68.39,35.8a5.08,5.08,0,0,1,0,7.16L49.06,62.28a6.35,6.35,0,0,1-9,0l-9.21-9.2A5.06,5.06,0,0,1,38,45.92l6.54,6.54L61.23,35.8A5.08,5.08,0,0,1,68.39,35.8Z" transform="translate(-1.26 -1.13)"/></svg>