<svg id="Layer_1" data-name="Layer 1" xmlns="http://www.w3.org/2000/svg" viewBox="0 0 149.97 191.97"><defs><style>.cls-1{fill:#4d4d4d;}</style></defs><path class="cls-1" d="M112.88,191.81a9.71,9.71,0,0,1-1-10.26,23.42,23.42,0,0,0,2.4-13.41,25.31,25.31,0,0,0-3.21-9.35,24.4,24.4,0,0,0-6.49-7.27,47.54,47.54,0,0,1-17.77-27.38C66.29,151,74.15,166.25,84,179.69a9,9,0,0,1-.16,10.81,10.5,10.5,0,0,1-4.73,3.4,10,10,0,0,1-5.74.27c-13.25-3.24-25.73-9.4-34.19-19.23a56,56,0,0,1-10.87-18.66,57.85,57.85,0,0,1-3.16-21.56s-1.59-29.55,34-58.5c0,0,42.11-35.73,27.5-62.15A7.44,7.44,0,0,1,88,6.24a6.69,6.69,0,0,1,7.48-1.76l1.75.69a91.57,91.57,0,0,1,35.51,42c7,17,6.92,36.72,2.21,54.32a44,44,0,0,0,9.61-12.4l.35-.76c2.38-5.73,9.85-3.9,12.66-.16,1,1.64,27.5,40.11,13.28,72.56A66.09,66.09,0,0,1,148.76,185a73.51,73.51,0,0,1-25.65,10.72,10,10,0,0,1-5.66-.46,10.4,10.4,0,0,1-4.57-3.48ZM91.69,98.69a5.06,5.06,0,0,1,6.6,1.76,5.4,5.4,0,0,1,.9,2.37l.54,4.19c.24,6.13.17,12.54,2.55,18.43A40.91,40.91,0,0,0,113.47,141a36.74,36.74,0,0,1,13.91,17.06,33.48,33.48,0,0,1,1,21.27,49.4,49.4,0,0,0,16.68-9.08l1.23-1a38,38,0,0,0,9.76-12.2,39.85,39.85,0,0,0,4.25-15.22c.78-12.3-3.41-24.65-9.93-35.66a27,27,0,0,1-11.81,9.65,29.49,29.49,0,0,1-9.31,2.28,9.58,9.58,0,0,1-5.27-1.2,10,10,0,0,1-3.85-3.94,9.87,9.87,0,0,1-.42-8.75,67.05,67.05,0,0,0,4.38-37.15,70.53,70.53,0,0,0-19.7-37.92c-1.88,26.46-29,51.09-34.57,56.39-.86.82-1.76,1.59-2.69,2.33C38,111.44,40,132.91,40,133.86a44.11,44.11,0,0,0,5.5,24.51,49.33,49.33,0,0,0,18.24,18.48c-8.72-19.17-8.72-42.19,23.47-75.18l4.46-3Z" transform="translate(-25.06 -4)"/></svg>