<svg id="Layer_1" data-name="Layer 1" xmlns="http://www.w3.org/2000/svg" viewBox="0 0 194 194"><defs><style>.cls-1{fill:#4d4d4d;}</style></defs><path class="cls-1" d="M156.26,197H43.74c-12,0-18.63,0-24.85-3.17A29,29,0,0,1,6.17,181.11C3,174.89,3,168.27,3,156.26v-64c0-12,0-18.63,3.17-24.85A29,29,0,0,1,18.89,54.67a25.37,25.37,0,0,1,7.17-2.35A34,34,0,0,1,56.35,3C74,3,88.87,13.12,99.41,32.28l.59,1.09.59-1.09C111.13,13.12,126,3,143.65,3a34,34,0,0,1,30.29,49.32,25.37,25.37,0,0,1,7.17,2.35,29,29,0,0,1,12.72,12.72C197,73.61,197,80.23,197,92.24v64c0,12,0,18.63-3.17,24.85a29,29,0,0,1-12.72,12.72C174.89,197,168.27,197,156.26,197ZM22.4,158.2c0,7.33.08,12.19,1.06,14.1a9.55,9.55,0,0,0,4.24,4.24c2.07,1.06,7.63,1.06,16,1.06H156.26c8.41,0,14,0,16-1.06a9.55,9.55,0,0,0,4.24-4.24c1-1.91,1.05-6.77,1.06-14.1Zm0-19.4H177.6V92.24c0-8.41,0-14-1.06-16A9.55,9.55,0,0,0,172.3,72c-2.07-1.06-7.63-1.06-16-1.06H115.69l12.39,24.76a9.7,9.7,0,1,1-17.36,8.68L100,82.89,89.28,104.34a9.7,9.7,0,1,1-17.36-8.68L84.31,70.9H43.74c-8.41,0-14,0-16,1.06a9.55,9.55,0,0,0-4.24,4.24c-1.06,2.07-1.06,7.63-1.06,16Zm90.65-87.3h30.6a14.55,14.55,0,1,0,0-29.1C127,22.4,117.62,39.46,113.05,51.5Zm-56.7,0H87c-4.57-12-14-29.1-30.6-29.1a14.55,14.55,0,1,0,0,29.1Z" transform="translate(-3 -3)"/></svg>