<svg id="Layer_1" data-name="Layer 1" xmlns="http://www.w3.org/2000/svg" viewBox="0 0 193.51 193.51"><defs><style>.cls-1,.cls-2{fill:#d32f2f;}.cls-1{fill-rule:evenodd;}</style></defs><path class="cls-1" d="M185.55,89H174a75.31,75.31,0,0,0-63.74-63.75V13.75a10.75,10.75,0,0,0-21.5,0V25.26A75.31,75.31,0,0,0,25.05,89H13.54a10.75,10.75,0,1,0,0,21.5H25.05a75.29,75.29,0,0,0,63.74,63.74v11.51a10.75,10.75,0,0,0,21.5,0V174.25A75.29,75.29,0,0,0,174,110.51h11.52a10.75,10.75,0,0,0,0-21.5Zm-86,64.5A53.76,53.76,0,1,1,153.3,99.76,53.75,53.75,0,0,1,99.54,153.51Z" transform="translate(-2.78 -3)"/><circle class="cls-2" cx="96.76" cy="96.76" r="32.25"/></svg>