<svg id="Layer_1" data-name="Layer 1" xmlns="http://www.w3.org/2000/svg" viewBox="0 0 194 187.07"><defs><style>.cls-1{fill:#4d4d4d;}</style></defs><path class="cls-1" d="M148.5,179.68a18.52,18.52,0,0,1-17.32-12.47c0-.7,0-1.39-.69-1.39H68.82c0,.69,0,1.39-.69,1.39A17.05,17.05,0,0,1,51.5,179.68a6.93,6.93,0,0,0,0,13.86h97a6.93,6.93,0,0,0,0-13.86Z" transform="translate(-3 -6.46)"/><path class="cls-1" d="M176.21,6.46H23.79A20.42,20.42,0,0,0,3,27.25V131.18A20.41,20.41,0,0,0,23.79,152H176.21A20.41,20.41,0,0,0,197,131.18V27.25A20.42,20.42,0,0,0,176.21,6.46ZM164.44,110.39H127a23.67,23.67,0,0,0,.69-6.93,27.71,27.71,0,1,0-55.42,0c0,2.08.69,4.85.69,6.93H35.56c0-2.08-.69-4.85-.69-6.93A61.55,61.55,0,0,1,37,88.22a6.39,6.39,0,0,1,7.62-4.85c4.16.69,8.32-1.38,11.09-5.54A10.47,10.47,0,0,0,55,66.05c-2.07-2.77-2.07-6.93.7-9C63.28,50.11,72.29,44.57,82,41.8h2.07c2.78,0,5.55,1.39,6.24,4.16a10.25,10.25,0,0,0,19.4,0c1.39-3.47,4.85-4.85,8.31-4.16,9.7,2.77,18.71,8.31,26.33,15.24a6.54,6.54,0,0,1,.7,9,10.47,10.47,0,0,0-.7,11.78,11.26,11.26,0,0,0,11.09,5.54c3.46-.69,6.93,2.08,7.62,5.54a57.59,57.59,0,0,1,2.08,15.25C164.44,105.54,164.44,108.31,164.44,110.39Z" transform="translate(-3 -6.46)"/></svg>