<svg id="Layer_1" data-name="Layer 1" xmlns="http://www.w3.org/2000/svg" viewBox="0 0 196 196"><defs><style>.cls-1{fill:#4d4d4d;}</style></defs><path class="cls-1" d="M156,198A153.53,153.53,0,0,1,47.11,152.89,153.53,153.53,0,0,1,2,44c0-3.79.14-7.63.42-11.4.35-4.77.6-8.22,2.73-11.91a19,19,0,0,1,8.07-7.5c3.84-1.86,7.36-1.86,12.69-1.86h26.3c4.44,0,7.38,0,10.61,1.24a18.87,18.87,0,0,1,7.4,5.19c2.27,2.61,3.27,5.37,4.79,9.55L85.9,57.24c1.75,4.83,2.91,8,2.66,11.93a18.69,18.69,0,0,1-3.4,9.58C82.9,82,80,83.69,75.58,86.34l-5.36,3.21a103.12,103.12,0,0,0,40.23,40.23l3.21-5.36c2.65-4.41,4.39-7.32,7.59-9.58a18.69,18.69,0,0,1,9.58-3.4c3.91-.25,7.1.91,11.93,2.66L172.69,125c4.19,1.52,6.94,2.52,9.55,4.79a18.73,18.73,0,0,1,5.19,7.41c1.24,3.22,1.24,6.16,1.24,10.6v26.3c0,5.33,0,8.85-1.86,12.7a19,19,0,0,1-7.5,8.06c-3.69,2.13-7.14,2.38-11.91,2.73C163.63,197.86,159.8,198,156,198ZM21.38,30.08c-.12.82-.24,2.43-.35,3.88-.24,3.32-.36,6.7-.36,10,0,74.62,60.71,135.33,135.33,135.33,3.35,0,6.72-.12,10-.36,1.46-.11,3.07-.23,3.89-.35.08-1,.08-2.84.08-4.53v-26.3c0-1.52,0-3.09-.06-3.88-.72-.32-2.19-.86-3.62-1.38l-29.94-10.88c-1.68-.61-3.4-1.24-4.3-1.49-.55.76-1.49,2.33-2.41,3.86L122,146.8a9.32,9.32,0,0,1-11.85,3.7,121.12,121.12,0,0,1-35.82-24.83A121.51,121.51,0,0,1,49.5,89.86,9.33,9.33,0,0,1,53.2,78L66,70.33c1.53-.92,3.11-1.86,3.87-2.41-.25-.9-.88-2.62-1.48-4.3L57.47,33.69c-.52-1.43-1.06-2.91-1.38-3.63C55.3,30,53.73,30,52.21,30H25.91C24.22,30,22.33,30,21.38,30.08Zm148.48,149Zm0-.3Zm.17-.18Zm-.16-35h0Zm-37.55-13.73ZM69.94,68.36ZM21,30.14Zm.3,0Zm35.2,0h0Zm-.53-.38h0Zm95.4,65.15a9.34,9.34,0,0,1-9.15-7.55,37.31,37.31,0,0,0-29.49-29.49,9.33,9.33,0,0,1,3.57-18.32,56,56,0,0,1,44.24,44.24,9.36,9.36,0,0,1-9.17,11.12Zm37.33-.1a9.34,9.34,0,0,1-9.26-8.29,74.66,74.66,0,0,0-65.95-65.87A9.33,9.33,0,1,1,115.5,2.06,93.31,93.31,0,0,1,197.94,84.4a9.34,9.34,0,0,1-8.23,10.32A9.51,9.51,0,0,1,188.65,94.77Z" transform="translate(-2 -2)"/></svg>