<svg id="Layer_1" data-name="Layer 1" xmlns="http://www.w3.org/2000/svg" viewBox="0 0 190 190"><defs><style>.cls-1{fill:#4d4d4d;}.cls-2{fill:#fff;fill-rule:evenodd;}</style></defs><circle class="cls-1" cx="94.98" cy="93.87" r="68.4"/><g id="Page-1"><g id="Icon-Set-Filled"><path id="cross-circle" class="cls-2" d="M133.59,125.17a6,6,0,0,1-8.4,8.44L100,108.43,74.71,133.78a6,6,0,0,1-8.47-8.49L91.57,99.94,66.42,74.83a6,6,0,0,1,8.39-8.44L100,91.57,125.48,66a6,6,0,1,1,8.46,8.49l-25.51,25.53,25.16,25.11ZM100,5a95,95,0,1,0,95,95A95,95,0,0,0,100,5Z" transform="translate(-5 -5)"/></g></g></svg>