<svg id="Layer_1" data-name="Layer 1" xmlns="http://www.w3.org/2000/svg" viewBox="0 0 186 186"><defs><style>.cls-1{fill:#f5f5f7;}.cls-2{fill:#4d4d4d;}</style></defs><circle class="cls-1" cx="93" cy="93" r="93"/><path class="cls-2" d="M131.5,110.38a3.46,3.46,0,0,0-3.46,3.47v4.61a10.22,10.22,0,0,1-10,10.39H82a10.22,10.22,0,0,1-10-10.39v-4.61a3.46,3.46,0,1,0-6.92,0v4.61a17.14,17.14,0,0,0,17,17.31h36a17.14,17.14,0,0,0,17-17.31v-4.61A3.46,3.46,0,0,0,131.5,110.38Z" transform="translate(-7 -7)"/><path class="cls-2" d="M97.24,120.56l.08.09v0l0,.06h0l0,0,0,0,0,0,.05,0,0,0,0,0a.12.12,0,0,1,0,0l0,0,0,0h0l.06,0h0l.12.09h0l.12.09h0l.13.08h0a.41.41,0,0,0,.11.07l0,0,.09,0,.08,0,.08,0,.07,0,.09,0,.07,0,.09,0,.07,0,.09,0,.07,0,.1,0h.06l.11,0h1.08l.11,0h.06l.1,0,.07,0,.09,0,.07,0,.09,0,.07,0,.09,0,.07,0,.08,0,.08,0,.09,0,0,0a.41.41,0,0,0,.11-.07h0l.12-.08h0l.12-.09h0l.12-.09h0l.06,0h0l0,0,0,0a.12.12,0,0,1,0,0l0,0,0,0,.05,0,0,0,0,0,0,0h0l0-.06v0l.08-.1,18-23a3.46,3.46,0,0,0-5.46-4.25L103.46,108.4V67.69a3.46,3.46,0,0,0-6.92,0V108.4L84.73,93.26a3.46,3.46,0,0,0-5.46,4.25Z" transform="translate(-7 -7)"/></svg>