<svg id="Layer_1" data-name="Layer 1" xmlns="http://www.w3.org/2000/svg" viewBox="0 0 196 196"><defs><style>.cls-1{fill:#4d4d4d;}.cls-2{fill:#fff;fill-rule:evenodd;}</style></defs><circle class="cls-1" cx="98.09" cy="97.91" r="82.61"/><path class="cls-2" d="M198,100A98,98,0,1,1,100,2,98,98,0,0,1,198,100ZM35.91,91A64.62,64.62,0,0,1,151.47,59.26a7.35,7.35,0,1,1-11.68,8.92A49.93,49.93,0,0,0,50.74,91H54.3a7.35,7.35,0,0,1,5.19,12.55L48,115a7.33,7.33,0,0,1-10.38,0L26.21,103.57A7.35,7.35,0,0,1,31.4,91Zm126.43-6A7.33,7.33,0,0,0,152,85L140.51,96.43A7.35,7.35,0,0,0,145.7,109h3.56a49.93,49.93,0,0,1-88.92,23,7.35,7.35,0,1,0-11.64,9,64.62,64.62,0,0,0,115.39-32h4.51a7.35,7.35,0,0,0,5.19-12.55Z" transform="translate(-2 -2)"/></svg>