<svg id="Layer_1" data-name="Layer 1" xmlns="http://www.w3.org/2000/svg" viewBox="0 0 186 186"><defs><style>.cls-1{fill:#f5f5f7;}.cls-2{fill:#4d4d4d;}</style></defs><circle class="cls-1" cx="93" cy="93" r="93"/><path class="cls-2" d="M135.77,67.65c0-.1,0-.2,0-.3a.88.88,0,0,0,0-.16l0-.17c0-.06,0-.12,0-.18s0-.1,0-.15l-.06-.17s0-.1-.05-.15,0-.11-.08-.16a1,1,0,0,0-.07-.15l-.09-.15s-.05-.09-.08-.14l-.12-.16L135,65.5a3.78,3.78,0,0,0-.49-.49l-.11-.08-.16-.12-.15-.09-.14-.08-.15-.07-.16-.08-.15,0-.17-.06-.15,0-.18,0-.17,0-.16,0-.33,0H113.44a3.46,3.46,0,1,0,0,6.92H124l-26.4,26.4a3.46,3.46,0,0,0,4.9,4.9l26.4-26.4V86.8a3.46,3.46,0,1,0,6.92,0V67.65Z" transform="translate(-7 -7)"/><path class="cls-2" d="M132.31,96.54a3.46,3.46,0,0,0-3.46,3.46v13.85a15,15,0,0,1-15,15H86.15a15,15,0,0,1-15-15V86.15a15,15,0,0,1,15-15H100a3.46,3.46,0,0,0,0-6.92H86.15A21.93,21.93,0,0,0,64.23,86.15v27.7a21.93,21.93,0,0,0,21.92,21.92h27.7a21.93,21.93,0,0,0,21.92-21.92V100A3.46,3.46,0,0,0,132.31,96.54Z" transform="translate(-7 -7)"/></svg>